<svg xmlns="http://www.w3.org/2000/svg"><defs><symbol viewBox="0 0 20 20" id="alert"><path d="M10 .825A9.17 9.17 0 0 0 .825 10 9.17 9.17 0 0 0 10 19.175 9.17 9.17 0 0 0 19.175 10 9.17 9.17 0 0 0 10 .825Zm0 16.594A7.414 7.414 0 0 1 2.581 10C2.581 5.9 5.9 2.581 10 2.581S17.419 5.899 17.419 10c0 4.1-3.318 7.419-7.419 7.419Z" stroke="#000" stroke-width=".35"/><path d="M9.957 12.093c-.56 0-1.027.467-1.027 1.027 0 .56.467 1.026 1.027 1.026.534 0 1.027-.459 1.006-1.006a1.006 1.006 0 0 0-1.006-1.047Zm-.252-7.152-.007.002c-.49.14-.786.584-.786 1.102v.011c.011.138.021.277.03.417l.03.416.09 1.572.09 1.573a.792.792 0 0 0 .805.76.806.806 0 0 0 .806-.782v-.007c0-.219 0-.412.02-.624v-.006l.06-1.015.06-1.016v-.001c.01-.218.025-.435.04-.655.015-.22.03-.44.04-.66V6.02a1.23 1.23 0 0 0-.092-.497l-.001-.003a1.03 1.03 0 0 0-1.185-.579Z" stroke="#000" stroke-width=".3"/></symbol><symbol viewBox="0 0 24 24" id="arrow-prev"><path fill="none" d="M0 0h24v24H0z"/><path d="m9 19 1.41-1.41L5.83 13H22v-2H5.83l4.59-4.59L9 5l-7 7 7 7z"/></symbol></defs></svg>